<svg width="17" height="24" viewBox="0 0 17 24" fill="none" xmlns="http://www.w3.org/2000/svg">
<path d="M2.59015 1.322L5.43415 0L9.47515 7.89L6.75115 9.231C6.21315 10.49 8.91015 15.52 10.0481 15.603C10.1381 15.545 12.7191 14.275 12.7191 14.275L16.8291 22.207C16.8291 22.207 14.0651 23.561 13.9751 23.603C6.11315 27.194 -5.12785 5.345 2.59015 1.322ZM4.51915 2.596L3.49615 3.1C-1.79785 5.862 7.67315 24.285 13.1441 21.786L14.1151 21.312L11.8441 16.929L10.8181 17.429C7.65515 18.976 2.55615 9.21 5.76315 7.491L6.77015 6.994L4.51915 2.596Z" fill="black"/>
</svg>
